<svg xmlns="http://www.w3.org/2000/svg" width="35" height="35" viewBox="0 0 35.03 35">
	<defs>
		<style>
			.a,
			.b {
				fill: #fff;
			}
			.a {
				fill-rule: evenodd;
			}
		</style>
	</defs>
	<path class="a" d="M17.53,0A17.65,17.65,0,0,0,.24,15.07,18,18,0,0,0,12,35c.87.17,1.2-.39,1.2-.86s0-1.84,0-3.34c-4.86,1.08-5.89-2.12-5.89-2.12A4.71,4.71,0,0,0,5.33,26c-1.59-1.11.11-1.09.11-1.09a3.7,3.7,0,0,1,2.69,1.85,3.66,3.66,0,0,0,4.94,1.57l.15-.08a3.87,3.87,0,0,1,1.11-2.4c-3.87-.45-8-2-8-8.87a7.08,7.08,0,0,1,1.8-4.82,6.65,6.65,0,0,1,.17-4.75S9.8,7,13.14,9.27a16.13,16.13,0,0,1,8.77,0C25.24,7,26.72,7.43,26.72,7.43a6.65,6.65,0,0,1,.17,4.75A7,7,0,0,1,28.69,17c0,6.89-4.09,8.41-8,8.85a4.33,4.33,0,0,1,1.18,3.33c0,2.4,0,4.33,0,4.92s.31,1,1.2.86a18,18,0,0,0,11.72-19.9A17.64,17.64,0,0,0,17.53,0Z"/>
	<path class="b" d="M6.76,25.76a.22.22,0,0,1-.3.06c-.11-.06-.2-.18-.16-.27a.22.22,0,0,1,.3-.06c.11.06.2.18.16.27Z"/>
	<path class="b" d="M7.36,26.57c-.08.08-.25,0-.36-.08a.28.28,0,0,1,0-.37.27.27,0,0,1,.36.08C7.43,26.33,7.46,26.5,7.36,26.57Z"/>
	<path class="b" d="M8.06,27.61a.32.32,0,0,1-.4-.16.31.31,0,0,1,0-.42c.11-.08.29,0,.4.15S8.17,27.53,8.06,27.61Z"/>
	<path class="b" d="M9,28.66a.34.34,0,0,1-.47-.07h0a.33.33,0,0,1-.1-.45c.1-.1.29-.08.46.07s.2.35.1.45Z"/>
	<path class="b" d="M10.31,29.24c0,.14-.24.2-.44.14s-.34-.22-.3-.36.24-.21.45-.15S10.35,29.1,10.31,29.24Z"/>
	<path class="b" d="M11.74,29.34c0,.15-.16.27-.38.28S11,29.5,11,29.36s.16-.27.38-.28S11.74,29.2,11.74,29.34Z"/>
	<path class="b" d="M13.07,29.11c0,.15-.12.3-.33.33s-.4-.05-.42-.19.12-.29.33-.33S13.05,29,13.07,29.11Z"/>
	<rect class="b" x="-6.08" y="16.34" width="47.19" height="2.31" rx="1.16" transform="translate(-7.24 17.51) rotate(-45)"/>
</svg>
