<svg xmlns="http://www.w3.org/2000/svg" width="35" height="35" viewBox="0 0 35 35"><defs><style>.a,.b{fill:#fff;}.a{fill-rule:evenodd;}</style></defs><g transform="translate(0.025)"><path class="a" d="M17.483,0A17.638,17.638,0,0,0,.2,15.071a17.987,17.987,0,0,0,11.749,19.9c.869.166,1.194-.389,1.194-.865,0-.428-.014-1.839-.023-3.34C8.253,31.85,7.227,28.65,7.227,28.65a4.7,4.7,0,0,0-1.945-2.627c-1.588-1.114.119-1.09.119-1.09a3.691,3.691,0,0,1,2.684,1.848,3.664,3.664,0,0,0,5.092,1.486,3.866,3.866,0,0,1,1.113-2.4c-3.875-.449-7.975-1.988-7.975-8.864A7.038,7.038,0,0,1,8.12,12.183a6.6,6.6,0,0,1,.168-4.754S9.757,6.947,13.1,9.268a16.228,16.228,0,0,1,8.767,0c3.327-2.309,4.808-1.839,4.808-1.839a6.614,6.614,0,0,1,.171,4.754A7.035,7.035,0,0,1,28.646,17c0,6.894-4.092,8.409-7.99,8.855a4.352,4.352,0,0,1,1.185,3.322c0,2.4-.017,4.335-.017,4.924,0,.478.313,1.037,1.2.862a17.988,17.988,0,0,0,11.722-19.9A17.638,17.638,0,0,0,17.483,0Z" transform="translate(0 0)"/><path class="b" d="M21.751,85.982a.215.215,0,0,1-.294.056c-.118-.059-.2-.18-.162-.268a.217.217,0,0,1,.294-.056c.115.059.2.18.159.268Z" transform="translate(-15.036 -60.221)"/><path class="b" d="M24.2,88.251c-.085.079-.25.041-.365-.082a.271.271,0,0,1-.05-.368c.088-.079.247-.041.365.082S24.293,88.177,24.2,88.251Z" transform="translate(-16.879 -61.679)"/><path class="b" d="M26.557,91.455c-.109.077-.294,0-.4-.153s-.109-.347,0-.424.294,0,.4.15S26.666,91.378,26.557,91.455Z" transform="translate(-18.542 -63.849)"/><path class="b" d="M29.51,94.839a.333.333,0,0,1-.468-.079c-.156-.144-.2-.347-.1-.453s.294-.079.459.068.2.347.1.453Z" transform="translate(-20.537 -66.175)"/><path class="b" d="M33.673,97.289c-.044.138-.241.2-.445.144s-.333-.224-.294-.365.241-.206.445-.144S33.711,97.148,33.673,97.289Z" transform="translate(-23.406 -68.051)"/><path class="b" d="M38.572,97.959c0,.147-.165.268-.377.271s-.383-.112-.386-.259.165-.268.38-.271S38.572,97.815,38.572,97.959Z" transform="translate(-26.874 -68.615)"/><path class="b" d="M43.186,97.315c.027.144-.121.294-.33.33s-.4-.05-.424-.194.124-.294.33-.33S43.16,97.171,43.186,97.315Z" transform="translate(-30.156 -68.201)"/></g></svg>