<svg xmlns="http://www.w3.org/2000/svg" width="35" height="35" viewBox="0 0 35 35"><defs><style>.a{fill:#fff;}</style></defs><path class="a" d="M30.588,29.1A17.453,17.453,0,0,0,30.25,5.531h0s-.006,0-.008-.008A17.45,17.45,0,0,0,18.106.016h0L17.765.006C17.677,0,17.589,0,17.5,0s-.177,0-.265.006L16.9.015h0A17.45,17.45,0,0,0,4.759,5.523s-.006,0-.008.008h0A17.451,17.451,0,0,0,4.412,29.1c0,.005,0,.011.008.017s.027.022.038.036a17.46,17.46,0,0,0,12.436,5.832h0l.34.009c.089,0,.177.005.266.005s.177,0,.265-.006l.34-.009h0A17.459,17.459,0,0,0,30.551,29.14c.008-.01.021-.013.028-.024S30.584,29.1,30.588,29.1ZM1.222,18.1H8.465a22.3,22.3,0,0,0,1.457,7.372,22.251,22.251,0,0,0-4.895,2.493A16.218,16.218,0,0,1,1.222,18.1ZM5.357,6.652a22.2,22.2,0,0,0,4.767,2.343,22.284,22.284,0,0,0-1.659,7.9H1.222A16.222,16.222,0,0,1,5.357,6.652ZM33.778,16.9H26.535a22.284,22.284,0,0,0-1.659-7.9,22.2,22.2,0,0,0,4.767-2.343A16.222,16.222,0,0,1,33.778,16.9ZM16.9,9.029a21.1,21.1,0,0,1-5.112-.774A21.113,21.113,0,0,1,16.9,1.6Zm0,1.207V16.9H9.672a21.076,21.076,0,0,1,1.609-7.528A22.3,22.3,0,0,0,16.9,10.236Zm1.207,0a22.278,22.278,0,0,0,5.616-.868A21.076,21.076,0,0,1,25.329,16.9H18.1Zm0-1.207V1.6a21.113,21.113,0,0,1,5.112,6.66A21.1,21.1,0,0,1,18.1,9.029Zm6.281-1.141a22.285,22.285,0,0,0-4.76-6.538,16.246,16.246,0,0,1,9.162,4.416A20.989,20.989,0,0,1,24.385,7.888Zm-13.769,0a20.97,20.97,0,0,1-4.4-2.122A16.244,16.244,0,0,1,15.376,1.35,22.276,22.276,0,0,0,10.615,7.888ZM9.672,18.1H16.9v6.057a22.257,22.257,0,0,0-5.83.93A21.075,21.075,0,0,1,9.672,18.1ZM16.9,25.368V33.4a21.1,21.1,0,0,1-5.361-7.191A21.041,21.041,0,0,1,16.9,25.368ZM18.1,33.4V25.368a21.04,21.04,0,0,1,5.361.845A21.1,21.1,0,0,1,18.1,33.4Zm0-9.244V18.1h7.224a21.067,21.067,0,0,1-1.4,6.988A22.224,22.224,0,0,0,18.1,24.161ZM26.535,18.1h7.243a16.214,16.214,0,0,1-3.806,9.865,22.251,22.251,0,0,0-4.895-2.493A22.286,22.286,0,0,0,26.535,18.1ZM5.848,28.873a21.031,21.031,0,0,1,4.536-2.282,22.267,22.267,0,0,0,4.991,7.059A16.258,16.258,0,0,1,5.848,28.873ZM19.625,33.65a22.254,22.254,0,0,0,4.991-7.059,21.044,21.044,0,0,1,4.536,2.282A16.258,16.258,0,0,1,19.625,33.65Z"/></svg>