<svg xmlns="http://www.w3.org/2000/svg" viewBox="0 0 39.11 24.03"><defs><style>.a{fill:#fff;isolation:isolate;}</style></defs><title>logo-white</title><path class="a" d="M17.34,16.16H3.58a5.76,5.76,0,0,0,1.83,3.72,5.43,5.43,0,0,0,3.75,1.37,6.81,6.81,0,0,0,3-.67,5.89,5.89,0,0,0,2.33-2.06l2.84,1.28A8.64,8.64,0,0,1,13.82,23,10.64,10.64,0,0,1,9.08,24a9.79,9.79,0,0,1-4.72-1.11,8,8,0,0,1-3.21-3.09A8.7,8.7,0,0,1,0,15.36a8.84,8.84,0,0,1,1.13-4.45A8.19,8.19,0,0,1,4.23,7.8,8.72,8.72,0,0,1,8.58,6.69,8.63,8.63,0,0,1,13.1,7.84a8,8,0,0,1,3,3.28A11.56,11.56,0,0,1,17.34,16.16ZM8.64,9.38a4.62,4.62,0,0,0-3.2,1.22,5.64,5.64,0,0,0-1.77,3.24H14A5.72,5.72,0,0,0,12,10.6,5.12,5.12,0,0,0,8.64,9.38ZM32,6.75a6.31,6.31,0,0,1,3.74,1.16A7.62,7.62,0,0,1,38.23,11a10.32,10.32,0,0,1,.88,4.24,10.4,10.4,0,0,1-.87,4.26,7.51,7.51,0,0,1-2.45,3.12,6.14,6.14,0,0,1-3.67,1.15,6.81,6.81,0,0,1-4.79-2.14v1.89H19.27V19.77h2.84v-16H19.27V0h8.06V9A6,6,0,0,1,32,6.75Zm-1.44,13a2.69,2.69,0,0,0,2.35-1.24,5.73,5.73,0,0,0,.85-3.3,4.9,4.9,0,0,0-.85-3.12,3,3,0,0,0-4.72.15,5.51,5.51,0,0,0-.86,3.23,5.07,5.07,0,0,0,.88,3.09A2.77,2.77,0,0,0,30.53,19.73Z"/></svg>