<svg xmlns="http://www.w3.org/2000/svg" width="30.036" height="35.293" viewBox="0 0 30.036 35.293"><defs><style>.a{fill:#fff;}</style></defs><g transform="translate(0.004)"><path class="a" d="M9.239,494.715a1.572,1.572,0,0,0-1.417-.955H2.731a.78.78,0,0,0-.694.318.789.789,0,0,0,.029.781l3.442,5.958a.027.027,0,0,1,0,.029L.1,510.39a.788.788,0,0,0,0,.781.75.75,0,0,0,.665.347h5.09a1.555,1.555,0,0,0,1.388-.983l5.5-9.718C12.718,500.783,9.239,494.715,9.239,494.715Z" transform="translate(0 -486.789)"/><path class="a" d="M828.038,1.111a.8.8,0,0,0,.011-.786A.755.755,0,0,0,827.372,0H822.23a1.492,1.492,0,0,0-1.363.969S809.9,20.416,809.54,21.055l7.232,13.269a1.592,1.592,0,0,0,1.422.969h5.084a.752.752,0,0,0,.676-.325.793.793,0,0,0-.01-.787l-7.176-13.111a.029.029,0,0,1,0-.033Z" transform="translate(-798.115)"/></g></svg>